<svg width="1133" height="234" viewBox="0 0 1133 234" fill="none" xmlns="http://www.w3.org/2000/svg">
<path d="M13.7917 207L46.0229 25.287H185.099L176.978 70.969H91.4512L86.1216 101.424H159.72L152.868 141.522H79.0155L67.3412 207H13.7917ZM264.595 210.807C203.685 210.807 168.916 173.754 179.068 115.636C189.219 58.0258 236.678 21.7339 297.08 21.7339C357.989 21.7339 393.012 58.5334 382.861 116.651C372.455 174.261 325.25 210.807 264.595 210.807ZM271.447 166.901C300.379 166.901 323.728 146.598 329.311 115.636C334.641 85.435 318.652 65.3857 290.228 65.3857C261.549 65.3857 237.947 85.9426 232.617 116.651C227.034 146.852 243.023 166.901 271.447 166.901ZM388.775 207L421.006 25.287H478.109L517.954 137.969H520.492L540.287 25.287H590.537L558.306 207H501.204L461.359 94.5714H458.821L438.771 207H388.775ZM632.216 207L656.58 69.1925H599.731L607.599 25.287H774.592L766.978 69.1925H710.13L685.766 207H632.216ZM738.988 207L796.091 25.287H874.765L931.614 207H876.542L867.913 179.337H802.689L794.06 207H738.988ZM813.348 141.269H857.508L836.697 70.7152H834.159L813.348 141.269ZM948.693 207V25.287H1006.05L1065.69 137.969H1068.23V25.287H1118.22V207H1060.87L1001.23 94.5714H998.69V207H948.693Z" fill="white"/>
</svg>
